<svg width="75" height="76" viewBox="0 0 75 76" fill="none" xmlns="http://www.w3.org/2000/svg">
<g filter="url(#filter0_i_4356_19273)">
<path d="M5 1.5L70 1.5C71.933 1.5 73.5 3.067 73.5 5V70C73.5 71.933 71.933 73.5 70 73.5H5C3.067 73.5 1.5 71.933 1.5 70L1.5 5C1.5 3.067 3.067 1.5 5 1.5Z" stroke="#F6BD60" stroke-width="3" stroke-linejoin="round"/>
</g>
<g filter="url(#filter1_d_4356_19273)">
<path d="M56.1111 39.2H37.5V55.2H56.1111V39.2ZM52.3889 4V10.4H22.6111V4H15.1667V10.4H11.4444C7.31278 10.4 4.03722 13.28 4.03722 16.8L4 61.6C4 65.12 7.31278 68 11.4444 68H63.5556C67.65 68 71 65.12 71 61.6V16.8C71 13.28 67.65 10.4 63.5556 10.4H59.8333V4H52.3889ZM63.5556 61.6H11.4444V26.4H63.5556V61.6Z" fill="#6CAB9C"/>
</g>
<rect x="11.25" y="26.3383" width="52.5" height="35.3234" stroke="#6CAB9C" stroke-width="0.5"/>
<line x1="11" y1="34.7942" x2="64" y2="34.7942" stroke="#6CAB9C" stroke-width="0.5"/>
<line x1="11" y1="43.75" x2="64" y2="43.75" stroke="#6CAB9C" stroke-width="0.5"/>
<line x1="11" y1="52.7059" x2="64" y2="52.7059" stroke="#6CAB9C" stroke-width="0.5"/>
<line x1="43.0498" y1="26.1766" x2="43.0498" y2="62" stroke="#6CAB9C" stroke-width="0.5"/>
<line x1="32.4502" y1="26.0883" x2="32.4502" y2="61.9117" stroke="#6CAB9C" stroke-width="0.5"/>
<line x1="21.8516" y1="26" x2="21.8516" y2="61.8234" stroke="#6CAB9C" stroke-width="0.5"/>
<line x1="53.6494" y1="26.0883" x2="53.6494" y2="61.9117" stroke="#6CAB9C" stroke-width="0.5"/>
<g filter="url(#filter2_di_4356_19273)">
<path d="M64 46C64 54.8366 56.8366 62 48 62C39.1634 62 32 54.8366 32 46C32 37.1634 39.1634 30 48 30C56.8366 30 64 37.1634 64 46Z" fill="#6CAB9C"/>
<path d="M48.64 35.12V47.92M41.2769 55.8479L48.9552 47.0769M64 46C64 54.8366 56.8366 62 48 62C39.1634 62 32 54.8366 32 46C32 37.1634 39.1634 30 48 30C56.8366 30 64 37.1634 64 46Z" stroke="#F6BD60" stroke-width="4" stroke-linecap="round" stroke-linejoin="round"/>
</g>
<defs>
<filter id="filter0_i_4356_19273" x="0" y="0" width="75" height="79" filterUnits="userSpaceOnUse" color-interpolation-filters="sRGB">
<feFlood flood-opacity="0" result="BackgroundImageFix"/>
<feBlend mode="normal" in="SourceGraphic" in2="BackgroundImageFix" result="shape"/>
<feColorMatrix in="SourceAlpha" type="matrix" values="0 0 0 0 0 0 0 0 0 0 0 0 0 0 0 0 0 0 127 0" result="hardAlpha"/>
<feOffset dy="4"/>
<feGaussianBlur stdDeviation="2"/>
<feComposite in2="hardAlpha" operator="arithmetic" k2="-1" k3="1"/>
<feColorMatrix type="matrix" values="0 0 0 0 0 0 0 0 0 0 0 0 0 0 0 0 0 0 0.25 0"/>
<feBlend mode="normal" in2="shape" result="effect1_innerShadow_4356_19273"/>
</filter>
<filter id="filter1_d_4356_19273" x="0" y="4" width="75" height="72" filterUnits="userSpaceOnUse" color-interpolation-filters="sRGB">
<feFlood flood-opacity="0" result="BackgroundImageFix"/>
<feColorMatrix in="SourceAlpha" type="matrix" values="0 0 0 0 0 0 0 0 0 0 0 0 0 0 0 0 0 0 127 0" result="hardAlpha"/>
<feOffset dy="4"/>
<feGaussianBlur stdDeviation="2"/>
<feComposite in2="hardAlpha" operator="out"/>
<feColorMatrix type="matrix" values="0 0 0 0 0 0 0 0 0 0 0 0 0 0 0 0 0 0 0.25 0"/>
<feBlend mode="normal" in2="BackgroundImageFix" result="effect1_dropShadow_4356_19273"/>
<feBlend mode="normal" in="SourceGraphic" in2="effect1_dropShadow_4356_19273" result="shape"/>
</filter>
<filter id="filter2_di_4356_19273" x="26" y="28" width="44" height="44" filterUnits="userSpaceOnUse" color-interpolation-filters="sRGB">
<feFlood flood-opacity="0" result="BackgroundImageFix"/>
<feColorMatrix in="SourceAlpha" type="matrix" values="0 0 0 0 0 0 0 0 0 0 0 0 0 0 0 0 0 0 127 0" result="hardAlpha"/>
<feOffset dy="4"/>
<feGaussianBlur stdDeviation="2"/>
<feComposite in2="hardAlpha" operator="out"/>
<feColorMatrix type="matrix" values="0 0 0 0 0 0 0 0 0 0 0 0 0 0 0 0 0 0 0.25 0"/>
<feBlend mode="normal" in2="BackgroundImageFix" result="effect1_dropShadow_4356_19273"/>
<feBlend mode="normal" in="SourceGraphic" in2="effect1_dropShadow_4356_19273" result="shape"/>
<feColorMatrix in="SourceAlpha" type="matrix" values="0 0 0 0 0 0 0 0 0 0 0 0 0 0 0 0 0 0 127 0" result="hardAlpha"/>
<feOffset dx="-4" dy="4"/>
<feGaussianBlur stdDeviation="3"/>
<feComposite in2="hardAlpha" operator="arithmetic" k2="-1" k3="1"/>
<feColorMatrix type="matrix" values="0 0 0 0 0 0 0 0 0 0 0 0 0 0 0 0 0 0 0.25 0"/>
<feBlend mode="normal" in2="shape" result="effect2_innerShadow_4356_19273"/>
</filter>
</defs>
</svg>
